<?xml version="1.0" encoding="utf-8"?>
<svg viewBox="0 0 400 400" xmlns="http://www.w3.org/2000/svg">
  <g transform="matrix(0.892849, 0, 0, 0.892805, 0.000017, -0.000027)">
    <path d="M 4.552 0.023 C 1.872 0.535 -0.046 2.898 0.001 5.625 L 0.001 442.425 C 0.001 445.518 2.509 448.026 5.603 448.026 L 442.403 448.026 C 445.496 448.026 448.004 445.518 448.004 442.425 L 448.004 5.625 C 448.004 2.531 445.496 0.023 442.403 0.023 L 5.603 0.023 C 5.251 -0.008 4.9 -0.008 4.552 0.023 Z M 11.2 11.222 L 436.8 11.222 L 436.8 436.822 L 11.2 436.822 L 11.2 11.222 Z M 128.1 123.042 C 125.921 123.257 124.061 124.718 123.346 126.788 C 122.632 128.858 123.19 131.155 124.772 132.667 L 215.948 224.019 L 124.772 315.195 C 122.62 317.422 122.671 320.968 124.885 323.133 C 127.096 325.301 130.643 325.269 132.823 323.07 L 223.999 231.894 L 315.175 323.07 C 317.355 325.269 320.902 325.301 323.112 323.133 C 325.327 320.968 325.378 317.422 323.226 315.195 L 232.05 224.019 L 323.226 132.667 C 324.909 131.042 325.409 128.542 324.472 126.394 C 323.534 124.249 321.362 122.913 319.023 123.042 C 317.562 123.101 316.179 123.73 315.175 124.792 L 223.999 215.968 L 132.823 124.792 C 131.616 123.495 129.862 122.847 128.1 123.042 Z"/>
  </g>
</svg>